<?xml version="1.0" encoding="UTF-8"?>
<!-- Generated by Pixelmator Pro 3.8 -->
<svg width="512" height="512" viewBox="0 0 512 512" xmlns="http://www.w3.org/2000/svg">
    <g id="Group">
        <path id="Path" fill="#ffffff" fill-rule="evenodd" stroke="none" d="M 256 40 L 420 108 L 420 232 C 420 338 352 433 256 472 C 160 433 92 338 92 232 L 92 108 L 256 40 Z M 256 75 L 124 130 L 124 232 C 124 320 179 400 256 437 C 333 400 388 320 388 232 L 388 130 L 256 75 Z"/>
        <g id="g1">
            <path id="path1" fill="#ffffff" stroke="none" d="M 177.57843 159.975494 L 333.558838 159.975494 C 340.813721 159.975494 347.161774 166.323517 347.161774 173.57843 C 347.161774 180.833344 340.813721 187.181366 333.558838 187.181366 L 177.57843 187.181366 C 170.323532 187.181366 163.975494 180.833344 163.975494 173.57843 C 163.975494 166.323517 170.323532 159.975494 177.57843 159.975494 Z"/>
            <path id="path2" fill="#ffffff" stroke="none" d="M 177.57843 228.897064 L 333.558838 228.897064 C 340.813721 228.897064 347.161774 235.245087 347.161774 242.5 C 347.161774 249.754913 340.813721 256.102936 333.558838 256.102936 L 177.57843 256.102936 C 170.323532 256.102936 163.975494 249.754913 163.975494 242.5 C 163.975494 235.245087 170.323532 228.897064 177.57843 228.897064 Z"/>
            <path id="path3" fill="#ffffff" stroke="none" d="M 177.57843 297.818634 L 333.558838 297.818634 C 340.813721 297.818634 347.161774 304.166687 347.161774 311.42157 C 347.161774 318.676453 340.813721 325.024506 333.558838 325.024506 L 177.57843 325.024506 C 170.323532 325.024506 163.975494 318.676453 163.975494 311.42157 C 163.975494 304.166687 170.323532 297.818634 177.57843 297.818634 Z"/>
            <path id="path4" fill="#ffffff" stroke="none" d="M 242.872543 173.57843 C 242.872543 166.323517 248.313721 160.882355 255.568634 160.882355 C 262.823517 160.882355 268.264709 166.323517 268.264709 173.57843 L 268.264709 311.42157 C 268.264709 318.676453 262.823517 324.117645 255.568634 324.117645 C 248.313721 324.117645 242.872543 318.676453 242.872543 311.42157 L 242.872543 173.57843 Z"/>
            <path id="path5" fill="#ffffff" stroke="none" d="M 177.57843 150 C 190.274506 150 201.15686 160.882355 201.15686 173.57843 C 201.15686 186.274506 190.274506 197.15686 177.57843 197.15686 C 164.882355 197.15686 154 186.274506 154 173.57843 C 154 160.882355 164.882355 150 177.57843 150 Z"/>
            <path id="path6" fill="#ffffff" stroke="none" d="M 333.558838 150 C 346.254913 150 357.137268 160.882355 357.137268 173.57843 C 357.137268 186.274506 346.254913 197.15686 333.558838 197.15686 C 320.862732 197.15686 309.980377 186.274506 309.980377 173.57843 C 309.980377 160.882355 320.862732 150 333.558838 150 Z"/>
            <path id="path7" fill="#ffffff" stroke="none" d="M 177.57843 218.92157 C 190.274506 218.92157 201.15686 229.803925 201.15686 242.5 C 201.15686 255.196075 190.274506 266.07843 177.57843 266.07843 C 164.882355 266.07843 154 255.196075 154 242.5 C 154 229.803925 164.882355 218.92157 177.57843 218.92157 Z"/>
            <path id="path8" fill="#ffffff" stroke="none" d="M 333.558838 218.92157 C 346.254913 218.92157 357.137268 229.803925 357.137268 242.5 C 357.137268 255.196075 346.254913 266.07843 333.558838 266.07843 C 320.862732 266.07843 309.980377 255.196075 309.980377 242.5 C 309.980377 229.803925 320.862732 218.92157 333.558838 218.92157 Z"/>
            <path id="path9" fill="#ffffff" stroke="none" d="M 177.57843 287.84314 C 190.274506 287.84314 201.15686 298.725494 201.15686 311.42157 C 201.15686 324.117645 190.274506 335 177.57843 335 C 164.882355 335 154 324.117645 154 311.42157 C 154 298.725494 164.882355 287.84314 177.57843 287.84314 Z"/>
            <path id="path10" fill="#ffffff" stroke="none" d="M 333.558838 287.84314 C 346.254913 287.84314 357.137268 298.725494 357.137268 311.42157 C 357.137268 324.117645 346.254913 335 333.558838 335 C 320.862732 335 309.980377 324.117645 309.980377 311.42157 C 309.980377 298.725494 320.862732 287.84314 333.558838 287.84314 Z"/>
        </g>
    </g>
</svg>
